<svg id="visual" viewBox="0 0 900 600" width="900" height="600" xmlns="http://www.w3.org/2000/svg" xmlns:xlink="http://www.w3.org/1999/xlink" version="1.1"><rect x="0" y="0" width="900" height="600" fill="#ffffff"></rect><path d="M0 388L15 388.8C30 389.7 60 391.3 90 391.8C120 392.3 150 391.7 180 389.7C210 387.7 240 384.3 270 390.7C300 397 330 413 360 415C390 417 420 405 450 408C480 411 510 429 540 425.8C570 422.7 600 398.3 630 399.2C660 400 690 426 720 438.2C750 450.3 780 448.7 810 442.7C840 436.7 870 426.3 885 421.2L900 416L900 601L885 601C870 601 840 601 810 601C780 601 750 601 720 601C690 601 660 601 630 601C600 601 570 601 540 601C510 601 480 601 450 601C420 601 390 601 360 601C330 601 300 601 270 601C240 601 210 601 180 601C150 601 120 601 90 601C60 601 30 601 15 601L0 601Z" fill="#0474b9"></path><path d="M0 442L15 441.5C30 441 60 440 90 435.5C120 431 150 423 180 428.7C210 434.3 240 453.7 270 462C300 470.3 330 467.7 360 459.8C390 452 420 439 450 430.3C480 421.7 510 417.3 540 416.8C570 416.3 600 419.7 630 430.3C660 441 690 459 720 458C750 457 780 437 810 426C840 415 870 413 885 412L900 411L900 601L885 601C870 601 840 601 810 601C780 601 750 601 720 601C690 601 660 601 630 601C600 601 570 601 540 601C510 601 480 601 450 601C420 601 390 601 360 601C330 601 300 601 270 601C240 601 210 601 180 601C150 601 120 601 90 601C60 601 30 601 15 601L0 601Z" fill="#0a639c"></path><path d="M0 510L15 506C30 502 60 494 90 486.2C120 478.3 150 470.7 180 465.8C210 461 240 459 270 464.7C300 470.3 330 483.7 360 492.7C390 501.7 420 506.3 450 500.5C480 494.7 510 478.3 540 471.8C570 465.3 600 468.7 630 470C660 471.3 690 470.7 720 478C750 485.3 780 500.7 810 497.5C840 494.3 870 472.7 885 461.8L900 451L900 601L885 601C870 601 840 601 810 601C780 601 750 601 720 601C690 601 660 601 630 601C600 601 570 601 540 601C510 601 480 601 450 601C420 601 390 601 360 601C330 601 300 601 270 601C240 601 210 601 180 601C150 601 120 601 90 601C60 601 30 601 15 601L0 601Z" fill="#11537f"></path><path d="M0 530L15 529.7C30 529.3 60 528.7 90 522.7C120 516.7 150 505.3 180 504.8C210 504.3 240 514.7 270 514.3C300 514 330 503 360 498.5C390 494 420 496 450 502.3C480 508.7 510 519.3 540 524.3C570 529.3 600 528.7 630 525C660 521.3 690 514.7 720 513.7C750 512.7 780 517.3 810 515.2C840 513 870 504 885 499.5L900 495L900 601L885 601C870 601 840 601 810 601C780 601 750 601 720 601C690 601 660 601 630 601C600 601 570 601 540 601C510 601 480 601 450 601C420 601 390 601 360 601C330 601 300 601 270 601C240 601 210 601 180 601C150 601 120 601 90 601C60 601 30 601 15 601L0 601Z" fill="#154363"></path><path d="M0 542L15 543.3C30 544.7 60 547.3 90 546.8C120 546.3 150 542.7 180 543.5C210 544.3 240 549.7 270 549.3C300 549 330 543 360 540.3C390 537.7 420 538.3 450 541.8C480 545.3 510 551.7 540 552.5C570 553.3 600 548.7 630 545.8C660 543 690 542 720 541C750 540 780 539 810 537.8C840 536.7 870 535.3 885 534.7L900 534L900 601L885 601C870 601 840 601 810 601C780 601 750 601 720 601C690 601 660 601 630 601C600 601 570 601 540 601C510 601 480 601 450 601C420 601 390 601 360 601C330 601 300 601 270 601C240 601 210 601 180 601C150 601 120 601 90 601C60 601 30 601 15 601L0 601Z" fill="#163349"></path></svg>